<?xml version="1.0" encoding="utf-8"?>
<!-- Generator: Adobe Illustrator 18.0.0, SVG Export Plug-In . SVG Version: 6.00 Build 0)  -->
<!DOCTYPE svg PUBLIC "-//W3C//DTD SVG 1.1//EN" "http://www.w3.org/Graphics/SVG/1.1/DTD/svg11.dtd">
<svg version="1.1" id="Слой_1" xmlns="http://www.w3.org/2000/svg" xmlns:xlink="http://www.w3.org/1999/xlink" x="0px" y="0px"
	 viewBox="0 0 21 19" enable-background="new 0 0 21 19" xml:space="preserve">
<path fill="red" d="M19.2,9.3c2.1-2.1,2.1-5.6,0-7.7c-2.1-2.1-5.6-2.1-7.8,0l-1,1.1l-1-1c-2.1-2.2-5.6-2.2-7.7,0
	C0.6,2.6,0,4,0,5.5s0.6,2.8,1.6,3.9l8.8,8.8L19.2,9.3z"/>
<path fill="red" d="M1.4,5.5c0-1.1,0.4-2.1,1.2-2.9c0.8-0.8,1.8-1.2,2.9-1.2s2.1,0.4,2.9,1.2l2,2l2-2C14,1,16.6,1,18.2,2.6
	c0.8,0.8,1.2,1.8,1.2,2.9s-0.4,2.1-1.2,2.9l-7.8,7.8L2.6,8.4C1.8,7.6,1.4,6.6,1.4,5.5z"/>
</svg>
